name ./resultDataOpenSim/trcMotMarkerGrf/sub09/grf-03-05.mot
datacolumns 19
datarows 10
range 0.46400000 0.50000000
endheader

                time	     ground_force_vx	     ground_force_vy	     ground_force_vz	     ground_force_px	     ground_force_py	     ground_force_pz	   l_ground_force_vx	   l_ground_force_vy	   l_ground_force_vz	   l_ground_force_px	   l_ground_force_py	   l_ground_force_pz	     ground_torque_x	     ground_torque_y	     ground_torque_z	   l_ground_torque_x	   l_ground_torque_y	   l_ground_torque_z	
          0.46400000	         24.53175445	        383.34519006	         -5.29111042	         -0.77617843	          0.00000000	          0.08284298	          0.00000000	          0.00000000	          0.00000000	          0.00000000	          0.00000000	          0.00000000	          0.00000000	          2.76455495	          0.00000000	          0.00000000	          0.00000000	          0.00000000	
          0.46800000	         26.42451437	        388.20982943	         -8.41182460	         -0.77484342	          0.00000000	          0.08335553	          0.00000000	          0.00000000	          0.00000000	          0.00000000	          0.00000000	          0.00000000	          0.00000000	          2.78844967	          0.00000000	          0.00000000	          0.00000000	          0.00000000	
          0.47200000	         28.68086899	        393.33085402	        -11.78881934	         -0.77351307	          0.00000000	          0.08385527	          0.00000000	          0.00000000	          0.00000000	          0.00000000	          0.00000000	          0.00000000	          0.00000000	          2.78491698	          0.00000000	          0.00000000	          0.00000000	          0.00000000	
          0.47600000	         31.48959405	        398.78840337	        -14.96990224	         -0.77221554	          0.00000000	          0.08430649	          0.00000000	          0.00000000	          0.00000000	          0.00000000	          0.00000000	          0.00000000	          0.00000000	          2.79041697	          0.00000000	          0.00000000	          0.00000000	          0.00000000	
          0.48000000	         34.90416925	        404.71332509	        -17.51327106	         -0.77095207	          0.00000000	          0.08467387	          0.00000000	          0.00000000	          0.00000000	          0.00000000	          0.00000000	          0.00000000	          0.00000000	          2.84378215	          0.00000000	          0.00000000	          0.00000000	          0.00000000	
          0.48400000	         38.82887236	        411.28284607	        -19.07697449	         -0.76970600	          0.00000000	          0.08492407	          0.00000000	          0.00000000	          0.00000000	          0.00000000	          0.00000000	          0.00000000	          0.00000000	          2.97745874	          0.00000000	          0.00000000	          0.00000000	          0.00000000	
          0.48800000	         43.05046787	        418.68692653	        -19.49158214	         -0.76844667	          0.00000000	          0.08503434	          0.00000000	          0.00000000	          0.00000000	          0.00000000	          0.00000000	          0.00000000	          0.00000000	          3.20945643	          0.00000000	          0.00000000	          0.00000000	          0.00000000	
          0.49200000	         47.30158040	        427.08043343	        -18.80020542	         -0.76713022	          0.00000000	          0.08500344	          0.00000000	          0.00000000	          0.00000000	          0.00000000	          0.00000000	          0.00000000	          0.00000000	          3.53794445	          0.00000000	          0.00000000	          0.00000000	          0.00000000	
          0.49600000	         51.33539890	        436.55389291	        -17.25624173	         -0.76571167	          0.00000000	          0.08485246	          0.00000000	          0.00000000	          0.00000000	          0.00000000	          0.00000000	          0.00000000	          0.00000000	          3.93985717	          0.00000000	          0.00000000	          0.00000000	          0.00000000	
          0.50000000	         54.98989939	        447.13021351	        -15.27547198	         -0.76416440	          0.00000000	          0.08462524	          0.00000000	          0.00000000	          0.00000000	          0.00000000	          0.00000000	          0.00000000	          0.00000000	          4.37397508	          0.00000000	          0.00000000	          0.00000000	          0.00000000	
